# xmcd CD database file
#
# Track frame offsets:
#	150
#	15327
#	28550
#	43637
#	62490
#	79992
#	92120
#	108602
#	128642
#	143320
#	160760
#
# Disc length: 2527 seconds
#
# Revision: 3
# Processed by: cddbd v1.5.2PL0 Copyright (c) Steve Scherf et al.
# Submitted via: CDex 1.79
#
DISCID=7d09dd0b
DTITLE=Tish Hinojosa - Destiny's Gate
DYEAR=1994
DGENRE=Country
TTITLE0=Destiny's Gate
TTITLE1=Saying You Will
TTITLE2=What More Can I Say In A Song
TTITLE3=Esperate (Wait For Me)
TTITLE4=Looking For My Love In The Pouring Rain
TTITLE5=I'm Not Through Loving You Yet
TTITLE6=Love Of Mine
TTITLE7=I Want To See You Again
TTITLE8=Noche Sin Estrellas (Night Without Stars)
TTITLE9=Yesterday`s Paper
TTITLE10=Baby Believe
EXTD=YEAR: 1994
EXTT0=
EXTT1=
EXTT2=
EXTT3=
EXTT4=
EXTT5=
EXTT6=
EXTT7=
EXTT8=
EXTT9=
EXTT10=
PLAYORDER=
